<svg width="28" height="23" viewBox="0 0 28 23" fill="none" xmlns="http://www.w3.org/2000/svg">
<path d="M20.8564 20.8572C20.8564 21.4331 21.0607 21.9245 21.4677 22.3316C21.8748 22.739 22.3666 22.9429 22.9428 22.9429C23.5181 22.9429 24.0099 22.739 24.4169 22.3316C24.8244 21.9245 25.0282 21.4331 25.0282 20.8572C25.0282 20.2812 24.8246 19.7898 24.4169 19.3824C24.0099 18.9753 23.5181 18.7715 22.9428 18.7715C22.3666 18.7715 21.8748 18.9753 21.4677 19.3824C21.0607 19.7898 20.8564 20.2812 20.8564 20.8572Z" fill="white"/>
<path d="M26.8043 2.39514C26.5978 2.18871 26.3535 2.08547 26.071 2.08547H6.50152C6.49051 2.0095 6.46608 1.8711 6.42807 1.67015C6.39006 1.46909 6.36027 1.30895 6.33853 1.18932C6.31667 1.07021 6.27615 0.926164 6.21628 0.757801C6.15652 0.589325 6.08593 0.456119 6.00448 0.358583C5.92316 0.260534 5.81455 0.176581 5.67872 0.105754C5.543 0.0353846 5.38811 0 5.21438 0H1.04305C0.760427 0 0.516045 0.103414 0.309672 0.309558C0.103243 0.515931 0 0.760484 0 1.04288C0 1.32527 0.103243 1.56971 0.309672 1.77608C0.516216 1.98251 0.760655 2.08564 1.04305 2.08564H4.36675L7.25071 15.4962C7.22913 15.5396 7.11779 15.7458 6.91672 16.1153C6.71577 16.4848 6.55557 16.8079 6.43618 17.0848C6.31672 17.3621 6.25697 17.5766 6.25697 17.7285C6.25697 18.0109 6.36021 18.2554 6.56653 18.4622C6.77319 18.668 7.01751 18.7715 7.29996 18.7715H8.34278H22.9426H23.9848C24.2672 18.7715 24.5117 18.668 24.718 18.4622C24.9246 18.2555 25.0278 18.011 25.0278 17.7285C25.0278 17.4461 24.9246 17.2016 24.718 16.9953C24.5118 16.7891 24.2673 16.6856 23.9848 16.6856H8.99431C9.25513 16.164 9.38548 15.8168 9.38548 15.643C9.38548 15.534 9.3719 15.4145 9.34468 15.2844C9.31745 15.1543 9.28492 15.0102 9.24691 14.8524C9.20885 14.6953 9.18453 14.5785 9.17369 14.5024L26.1855 12.5145C26.4568 12.4817 26.6797 12.3653 26.8534 12.1641C27.0273 11.9633 27.114 11.7325 27.114 11.4716V3.12868C27.1139 2.84629 27.0109 2.60185 26.8043 2.39514Z" fill="white"/>
<path d="M6.25684 20.8572C6.25684 21.4331 6.46041 21.9245 6.86785 22.3316C7.2754 22.739 7.76673 22.9429 8.34264 22.9429C8.91822 22.9429 9.40983 22.739 9.8171 22.3316C10.2245 21.9245 10.4283 21.4331 10.4283 20.8572C10.4283 20.2812 10.2247 19.7898 9.8171 19.3824C9.40978 18.9753 8.91822 18.7715 8.34264 18.7715C7.76679 18.7715 7.27517 18.9753 6.86785 19.3824C6.46064 19.7898 6.25684 20.2812 6.25684 20.8572Z" fill="white"/>
</svg>
