<svg width="20" height="20" viewBox="0 0 20 20" fill="none" xmlns="http://www.w3.org/2000/svg">
<path fill-rule="evenodd" clip-rule="evenodd" d="M17.7098 19.7959C17.8231 19.932 18.0045 20 18.1859 20C18.3673 20 18.5488 19.932 18.6848 19.7959L19.7959 18.6848C20.068 18.4127 20.068 18.0045 19.7959 17.7324L14.8753 12.7891C15.7823 11.4739 16.3265 9.88662 16.3265 8.16327C16.3265 3.65079 12.6757 0 8.16327 0C3.65079 0 0 3.67347 0 8.16327C0 12.6757 3.67347 16.3265 8.16327 16.3265C9.86395 16.3265 11.4739 15.7823 12.7891 14.8753L17.7098 19.7959ZM1.33787 8.16327C1.33787 4.42177 4.39909 1.36054 8.14059 1.36054C11.9048 1.36054 14.9433 4.42177 14.9433 8.16327C14.9433 11.9048 11.8821 14.966 8.14059 14.966C4.39909 14.966 1.33787 11.9048 1.33787 8.16327Z" fill="white"/>
</svg>
